<?xml version="1.0" encoding="UTF-8"?>
<svg xmlns="http://www.w3.org/2000/svg" xmlns:xlink="http://www.w3.org/1999/xlink" width="24px" height="24px" viewBox="0 0 24 24" version="1.1">
<g id="surface1">
<path style=" stroke:none;fill-rule:nonzero;fill:rgb(0%,0%,0%);fill-opacity:1;" d="M 12 0 C 5.382812 0 0 5.382812 0 12 C 0 18.617188 5.382812 24 12 24 C 18.617188 24 24 18.617188 24 12 C 24 5.382812 18.617188 0 12 0 Z M 16.40625 12.769531 L 10.589844 18.589844 C 10.375 18.800781 10.097656 18.910156 9.816406 18.910156 C 9.539062 18.910156 9.261719 18.800781 9.046875 18.589844 C 8.621094 18.164062 8.621094 17.472656 9.046875 17.046875 L 14.09375 12 L 9.046875 6.953125 C 8.621094 6.527344 8.621094 5.835938 9.046875 5.410156 C 9.472656 4.984375 10.164062 4.984375 10.589844 5.410156 L 16.40625 11.226562 C 16.613281 11.433594 16.726562 11.710938 16.726562 12 C 16.726562 12.289062 16.613281 12.566406 16.40625 12.769531 Z M 16.40625 12.769531 "/>
</g>
</svg>
