<?xml version="1.0" encoding="UTF-8"?>
<svg xmlns="http://www.w3.org/2000/svg" xmlns:xlink="http://www.w3.org/1999/xlink" width="36px" height="11px" viewBox="0 0 36 11" version="1.1">
<g id="surface1">
<path style=" stroke:none;fill-rule:nonzero;fill:rgb(0%,0%,0%);fill-opacity:1;" d="M 26.320312 1.914062 C 27.363281 2.371094 28.027344 3.332031 28.6875 4.230469 C 28.773438 4.078125 28.773438 4.078125 28.863281 3.921875 C 29.875 2.21875 29.875 2.21875 30.796875 1.832031 C 31.703125 1.675781 32.5625 1.734375 33.363281 2.210938 C 34.238281 2.875 34.746094 3.734375 35.015625 4.792969 C 35.179688 6.074219 34.96875 7.167969 34.222656 8.226562 C 33.683594 8.878906 33.257812 9.230469 32.402344 9.363281 C 31.527344 9.394531 30.953125 9.273438 30.246094 8.742188 C 29.726562 8.246094 29.34375 7.664062 28.96875 7.050781 C 28.894531 7.148438 28.816406 7.242188 28.742188 7.34375 C 28.628906 7.480469 28.519531 7.617188 28.40625 7.757812 C 28.34375 7.835938 28.285156 7.917969 28.21875 8.003906 C 27.597656 8.796875 27.007812 9.226562 26 9.371094 C 25.085938 9.417969 24.421875 9.363281 23.726562 8.742188 C 22.753906 7.617188 22.4375 6.613281 22.453125 5.152344 C 22.558594 4.039062 22.957031 3.117188 23.792969 2.371094 C 24.574219 1.753906 25.34375 1.652344 26.320312 1.914062 Z M 26.320312 1.914062 "/>
<path style=" stroke:none;fill-rule:nonzero;fill:rgb(0%,0%,0%);fill-opacity:1;" d="M 5.667969 0.785156 C 5.828125 0.785156 5.828125 0.785156 5.992188 0.789062 C 7.3125 0.828125 8.179688 1.300781 9.136719 2.210938 C 10.015625 3.222656 10.234375 4.28125 10.183594 5.597656 C 10.101562 6.257812 9.898438 6.765625 9.5625 7.332031 C 9.484375 7.480469 9.40625 7.628906 9.324219 7.78125 C 8.585938 8.683594 7.484375 9.320312 6.328125 9.449219 C 5.003906 9.566406 3.945312 9.28125 2.910156 8.425781 C 2.027344 7.59375 1.605469 6.789062 1.507812 5.582031 C 1.472656 4.183594 1.664062 3.210938 2.601562 2.132812 C 2.71875 2.035156 2.832031 1.933594 2.953125 1.832031 C 3.121094 1.683594 3.121094 1.683594 3.296875 1.535156 C 4.085938 0.953125 4.710938 0.769531 5.667969 0.785156 Z M 3.515625 2.257812 C 2.878906 3.4375 2.726562 4.6875 3.085938 5.980469 C 3.492188 7.101562 3.945312 8.226562 5.058594 8.792969 C 5.792969 9.03125 6.503906 8.972656 7.226562 8.71875 C 7.972656 8.199219 8.382812 7.515625 8.578125 6.628906 C 8.757812 5.011719 8.359375 3.886719 7.621094 2.476562 C 7.089844 1.855469 6.589844 1.480469 5.773438 1.335938 C 4.78125 1.285156 4.101562 1.410156 3.515625 2.257812 Z M 3.515625 2.257812 "/>
<path style=" stroke:none;fill-rule:nonzero;fill:rgb(0%,0%,0%);fill-opacity:1;" d="M 26.625 3.332031 C 27.371094 3.652344 27.917969 4.203125 28.265625 4.9375 C 28.230469 5.339844 28.230469 5.339844 27.984375 5.78125 C 27.898438 5.949219 27.898438 5.949219 27.808594 6.117188 C 27.328125 6.992188 26.78125 7.726562 25.875 8.179688 C 25.222656 8.234375 24.882812 8.246094 24.292969 7.949219 C 23.703125 7.441406 23.253906 6.859375 23.175781 6.0625 C 23.152344 5.078125 23.34375 4.332031 24.039062 3.605469 C 24.792969 3.007812 25.738281 3.089844 26.625 3.332031 Z M 26.625 3.332031 "/>
<path style=" stroke:none;fill-rule:nonzero;fill:rgb(0%,0%,0%);fill-opacity:1;" d="M 32.625 2.960938 C 33.433594 3.351562 33.957031 3.980469 34.3125 4.792969 C 34.457031 5.585938 34.46875 6.351562 34.03125 7.050781 C 33.539062 7.621094 32.933594 7.964844 32.191406 8.085938 C 31.328125 8.125 30.777344 7.847656 30.148438 7.289062 C 29.800781 6.898438 29.527344 6.507812 29.25 6.0625 C 30.296875 3.800781 30.296875 3.800781 31.359375 3.113281 C 31.832031 2.941406 32.128906 2.890625 32.625 2.960938 Z M 32.625 2.960938 "/>
<path style=" stroke:none;fill-rule:nonzero;fill:rgb(0%,0%,0%);fill-opacity:1;" d="M 12.375 6.628906 C 14.882812 6.628906 17.386719 6.628906 19.96875 6.628906 C 19.96875 7 19.96875 7.371094 19.96875 7.757812 C 17.460938 7.757812 14.957031 7.757812 12.375 7.757812 C 12.375 7.382812 12.375 7.011719 12.375 6.628906 Z M 12.375 6.628906 "/>
<path style=" stroke:none;fill-rule:nonzero;fill:rgb(0%,0%,0%);fill-opacity:1;" d="M 12.375 3.667969 C 14.882812 3.667969 17.386719 3.667969 19.96875 3.667969 C 19.96875 3.992188 19.96875 4.316406 19.96875 4.652344 C 17.460938 4.652344 14.957031 4.652344 12.375 4.652344 C 12.375 4.328125 12.375 4.003906 12.375 3.667969 Z M 12.375 3.667969 "/>
</g>
</svg>
