<svg xmlns="http://www.w3.org/2000/svg" version="1.1" viewBox="155.392 0 96.512 77.48852459016393" style="max-height: 500px" width="96.512" height="77.48852459016393">
<path transform="translate(0,0)" fill="#FCFDFD" d="M0 0 C84.48 0 168.96 0 256 0 C256 25.74 256 51.48 256 78 C171.52 78 87.04 78 0 78 C0 52.26 0 26.52 0 0 Z"/>
<path transform="translate(187.15625,13.578125)" fill="#3D4D67" d="M0 0 C7.43945095 3.24737939 12.1463116 10.06226609 16.84375 16.421875 C17.4625 15.33519531 17.4625 15.33519531 18.09375 14.2265625 C25.29721035 2.16719808 25.29721035 2.16719808 31.84375 -0.578125 C38.29283271 -1.68343337 44.41313254 -1.28162543 50.1015625 2.10546875 C56.31266323 6.79860988 59.93471445 12.9037069 61.84375 20.421875 C63.01880916 29.49860749 61.50668669 37.24862793 56.1953125 44.75 C52.37607388 49.38645562 49.34398623 51.87032262 43.265625 52.828125 C37.02730878 53.04701329 32.95615007 52.19238569 27.92578125 48.421875 C24.24281737 44.88401852 21.50764766 40.75606219 18.84375 36.421875 C18.3075 37.1025 17.77125 37.783125 17.21875 38.484375 C16.435 39.45375 15.65125 40.423125 14.84375 41.421875 C14.40804687 41.999375 13.97234375 42.576875 13.5234375 43.171875 C9.08773089 48.79528447 4.90538908 51.83728364 -2.27734375 52.87109375 C-8.76602336 53.20865512 -13.48646197 52.81183469 -18.4375 48.40625 C-25.33764529 40.43971862 -27.60878385 33.32238798 -27.4921875 22.9453125 C-26.74116843 15.06834509 -23.89249925 8.53230011 -17.96875 3.234375 C-12.3984314 -1.14306467 -6.92974055 -1.85797391 0 0 Z"/>
<path transform="translate(189.33984375,23.6328125)" fill="#FCFCFD" d="M0 0 C5.29702928 2.2570835 9.19829479 6.15862111 11.66015625 11.3671875 C11.41015625 14.2421875 11.41015625 14.2421875 9.66015625 17.3671875 C9.04333984 18.54667969 9.04333984 18.54667969 8.4140625 19.75 C5.00645413 25.93725639 1.09366571 31.15043277 -5.33984375 34.3671875 C-9.98279803 34.75410036 -12.39602905 34.83909485 -16.58984375 32.7421875 C-20.78020273 29.12324111 -23.97309654 25.00644825 -24.54296875 19.3515625 C-24.68921043 12.38070925 -23.35130379 7.09591896 -18.40234375 1.9296875 C-13.03731971 -2.31004548 -6.32332536 -1.71014809 0 0 Z"/>
<path transform="translate(232,21)" fill="#FAFBFB" d="M0 0 C5.75181495 2.756078 9.48373498 7.21173167 12 13 C13.02833118 18.61570927 13.11500576 24.04575875 10 29 C6.5021258 33.0299452 2.18588603 35.47400006 -3.08203125 36.34375 C-9.21264505 36.62507836 -13.12754588 34.64954291 -17.625 30.6875 C-20.08564686 27.90308382 -22.02784324 25.14084225 -24 22 C-16.56808199 5.95021962 -16.56808199 5.95021962 -9 1.0625 C-5.63194213 -0.13035383 -3.54143889 -0.51645984 0 0 Z"/>
</svg>