<?xml version="1.0" encoding="UTF-8"?>
<svg version="1.1" xmlns="http://www.w3.org/2000/svg" width="256" height="78">
<path d="M0 0 C84.48 0 168.96 0 256 0 C256 25.74 256 51.48 256 78 C171.52 78 87.04 78 0 78 C0 52.26 0 26.52 0 0 Z " fill="#FCFDFD" transform="translate(0,0)"/>
<path d="M0 0 C7.43945095 3.24737939 12.1463116 10.06226609 16.84375 16.421875 C17.4625 15.33519531 17.4625 15.33519531 18.09375 14.2265625 C25.29721035 2.16719808 25.29721035 2.16719808 31.84375 -0.578125 C38.29283271 -1.68343337 44.41313254 -1.28162543 50.1015625 2.10546875 C56.31266323 6.79860988 59.93471445 12.9037069 61.84375 20.421875 C63.01880916 29.49860749 61.50668669 37.24862793 56.1953125 44.75 C52.37607388 49.38645562 49.34398623 51.87032262 43.265625 52.828125 C37.02730878 53.04701329 32.95615007 52.19238569 27.92578125 48.421875 C24.24281737 44.88401852 21.50764766 40.75606219 18.84375 36.421875 C18.3075 37.1025 17.77125 37.783125 17.21875 38.484375 C16.435 39.45375 15.65125 40.423125 14.84375 41.421875 C14.40804687 41.999375 13.97234375 42.576875 13.5234375 43.171875 C9.08773089 48.79528447 4.90538908 51.83728364 -2.27734375 52.87109375 C-8.76602336 53.20865512 -13.48646197 52.81183469 -18.4375 48.40625 C-25.33764529 40.43971862 -27.60878385 33.32238798 -27.4921875 22.9453125 C-26.74116843 15.06834509 -23.89249925 8.53230011 -17.96875 3.234375 C-12.3984314 -1.14306467 -6.92974055 -1.85797391 0 0 Z " fill="#3D4D67" transform="translate(187.15625,13.578125)"/>
<path d="M0 0 C5.91105652 3.16542182 8.75753969 8.36439854 11.66015625 14.21484375 C12.00175781 14.85292969 12.34335937 15.49101562 12.6953125 16.1484375 C16.30103499 23.94686055 15.87849882 33.81836393 13.03515625 41.77734375 C10.99695369 46.18740481 8.69921172 48.55078588 4.66015625 51.21484375 C-0.50693384 52.93720711 -5.55868641 53.19298174 -10.75 51.3671875 C-18.56857892 46.98180961 -22.35419088 38.40404245 -25.0078125 30.1328125 C-26.64871795 20.6541704 -25.4917277 11.19401925 -19.9375 3.1953125 C-14.58503194 -2.3927165 -7.03795774 -2.36165193 0 0 Z " fill="#FCFCFC" transform="translate(46.33984375,10.78515625)"/>
<path d="M0 0 C1.13211914 0.01353516 1.13211914 0.01353516 2.28710938 0.02734375 C11.67605563 0.31897625 17.867681 3.6542702 24.66796875 10.12109375 C30.90662967 17.27684989 32.47095916 24.79230934 32.11328125 34.1328125 C31.50964966 38.81787967 30.08456456 42.40341574 27.6875 46.4375 C27.130625 47.489375 26.57375 48.54125 26 49.625 C20.74382713 56.01764267 12.90641376 60.52428736 4.6875 61.4375 C-4.73510185 62.26890605 -12.24614444 60.23733091 -19.625 54.1875 C-25.89219045 48.27553492 -28.9003679 42.58915129 -29.5859375 34.01953125 C-29.85329302 24.0965282 -28.47092657 17.21969055 -21.8125 9.5625 C-20.9875 8.86125 -20.1625 8.16 -19.3125 7.4375 C-18.1059375 6.385625 -18.1059375 6.385625 -16.875 5.3125 C-11.24833534 1.1954283 -6.82405516 -0.09705323 0 0 Z M-15.3125 10.4375 C-19.83310316 18.81748377 -20.92797293 27.67079131 -18.359375 36.83984375 C-15.48259614 44.78740053 -12.25530025 52.76969507 -4.3359375 56.78125 C0.89355871 58.47730283 5.94430933 58.05084487 11.0625 56.25 C16.39340315 52.5691383 19.3022994 47.74016274 20.6875 41.4375 C21.97251118 29.97017196 19.14068966 21.98665281 13.875 12 C10.11353362 7.59371081 6.53682967 4.94076806 0.74609375 3.91796875 C-6.31991979 3.53769518 -11.15473766 4.44985897 -15.3125 10.4375 Z " fill="#3D4D67" transform="translate(40.3125,5.5625)"/>
<path d="M0 0 C5.29702928 2.2570835 9.19829479 6.15862111 11.66015625 11.3671875 C11.41015625 14.2421875 11.41015625 14.2421875 9.66015625 17.3671875 C9.04333984 18.54667969 9.04333984 18.54667969 8.4140625 19.75 C5.00645413 25.93725639 1.09366571 31.15043277 -5.33984375 34.3671875 C-9.98279803 34.75410036 -12.39602905 34.83909485 -16.58984375 32.7421875 C-20.78020273 29.12324111 -23.97309654 25.00644825 -24.54296875 19.3515625 C-24.68921043 12.38070925 -23.35130379 7.09591896 -18.40234375 1.9296875 C-13.03731971 -2.31004548 -6.32332536 -1.71014809 0 0 Z " fill="#FCFCFD" transform="translate(189.33984375,23.6328125)"/>
<path d="M0 0 C5.75181495 2.756078 9.48373498 7.21173167 12 13 C13.02833118 18.61570927 13.11500576 24.04575875 10 29 C6.5021258 33.0299452 2.18588603 35.47400006 -3.08203125 36.34375 C-9.21264505 36.62507836 -13.12754588 34.64954291 -17.625 30.6875 C-20.08564686 27.90308382 -22.02784324 25.14084225 -24 22 C-16.56808199 5.95021962 -16.56808199 5.95021962 -9 1.0625 C-5.63194213 -0.13035383 -3.54143889 -0.51645984 0 0 Z " fill="#FAFBFB" transform="translate(232,21)"/>
<path d="M0 0 C17.82 0 35.64 0 54 0 C54 2.64 54 5.28 54 8 C36.18 8 18.36 8 0 8 C0 5.36 0 2.72 0 0 Z " fill="#41506A" transform="translate(88,47)"/>
<path d="M0 0 C17.82 0 35.64 0 54 0 C54 2.31 54 4.62 54 7 C36.18 7 18.36 7 0 7 C0 4.69 0 2.38 0 0 Z " fill="#374762" transform="translate(88,26)"/>
</svg>
