<svg width="576" height="592" xmlns="http://www.w3.org/2000/svg" xml:space="preserve" enable-background="new 0 0 576 592" version="1.1">

 <g>
  <g transform="rotate(90 293.179 298.769)">
   <path d="m332.18326,231.29477c1.02783,17.81454 -14.45657,28.52081 -29.20187,29.85907c-8.88312,0.80621 -17.5611,-0.20816 -25.64725,-4.64331c-16.02899,-8.7916 -18.67773,-26.64577 -5.79596,-39.63838c3.99521,-4.0296 8.88846,-6.8799 13.90933,-10.44598c-3.00177,-1.8692 -5.56104,-3.34901 -8.00186,-5.00359c-8.14993,-5.52473 -14.99155,-12.06535 -14.3132,-22.93465c0.85889,-13.76154 8.92599,-22.16666 21.3782,-26.67526c12.65775,-4.58301 24.96426,-3.5432 36.26666,3.96056c14.52829,9.64543 15.43576,28.27647 2.07437,39.51495c-3.54651,2.98303 -7.40988,5.58937 -11.96878,8.99738c10.71805,6.2446 19.90649,13.46359 21.30035,27.00922m-16.11679,15.19984c6.4642,-9.65092 5.64322,-16.27808 -2.95389,-24.03334c-3.23251,-2.91599 -6.8616,-5.248 -10.67273,-7.30962c-9.85498,-5.33098 -11.23572,-5.09869 -19.13058,3.11455c-9.50787,9.89124 -8.14014,25.54869 2.90393,32.50229c9.01901,5.67856 23.57455,3.68707 29.85327,-4.27388m0.26129,-79.04605c-8.51395,-13.26929 -23.71622,-14.91742 -35.20703,-3.81694c-6.74423,6.51511 -7.08444,15.17241 -0.81793,22.19403c5.5654,6.23598 12.82562,9.86038 20.33533,13.10368c1.41919,0.61288 2.51923,0.23274 3.71552,-0.50938c11.71756,-7.26891 16.39276,-15.7034 11.97412,-30.97139z" fill="#000000"/>
   <path d="m283.92236,447.40283c-16.90686,-5.17856 -26.83722,-16.12894 -29.7263,-33.20563c-3.57559,-21.13425 15.12709,-43.03006 36.54387,-43.62714c17.43875,-0.48618 30.79553,6.13483 38.04465,21.97775c11.05899,24.16937 -2.79169,51.78763 -30.1311,55.59912c-4.87042,0.67902 -9.58807,0.22705 -14.73111,-0.74411m-17.16449,-20.6564c12.47638,10.50974 40.1691,8.1087 52.78818,-3.99948c11.84235,-11.36285 8.83972,-27.95398 -6.16751,-34.42502c-16.33463,-7.04343 -34.86801,-0.62332 -45.86349,9.36484c-8.63235,7.84152 -8.7894,20.36996 -0.75717,29.05966z" fill="#000000"/>
   <path d="m291.15088,292.06348c-0.01352,18.15524 -0.15784,35.82043 0.04889,53.48154c0.05527,4.7178 -1.69312,5.97687 -6.15738,5.95877c-4.41043,-0.01788 -6.26807,-1.18115 -6.21671,-5.93643c0.20163,-18.66138 0.05289,-37.32635 0.07437,-55.98996c0.00739,-6.39526 0.56277,-6.96091 6.17178,-6.97171c5.63232,-0.01083 6.05533,0.47238 6.08896,6.96652c0.00345,0.66653 -0.00574,1.33313 -0.00992,2.49127z" fill="#000000"/>
   <path d="m309.20416,351.32428c-3.2822,-0.31003 -3.26953,-2.43118 -3.27124,-4.45865c-0.01672,-19.96243 0.04636,-39.92511 -0.05191,-59.88708c-0.02521,-5.11908 3.52307,-4.13043 6.55627,-4.42047c3.25806,-0.31158 4.95364,0.616 4.93536,4.30334c-0.09906,19.96201 -0.12964,39.92535 0.00409,59.88699c0.04272,6.37509 -4.47632,4.19986 -8.17258,4.57587z" fill="#000000"/>
  </g>
 </g>
</svg>